<?xml version="1.0" encoding="UTF-8" standalone="no"?>
<!-- Created with Inkscape (http://www.inkscape.org/) -->

<svg
   width="20mm"
   height="20mm"
   viewBox="0 0 20 20"
   version="1.1"
   id="svg1"
   inkscape:version="1.4.2 (ebf0e940, 2025-05-08)"
   sodipodi:docname="logo.svg"
   inkscape:export-filename="logo_300.png"
   inkscape:export-xdpi="381"
   inkscape:export-ydpi="381"
   xmlns:inkscape="http://www.inkscape.org/namespaces/inkscape"
   xmlns:sodipodi="http://sodipodi.sourceforge.net/DTD/sodipodi-0.dtd"
   xmlns:xlink="http://www.w3.org/1999/xlink"
   xmlns="http://www.w3.org/2000/svg"
   xmlns:svg="http://www.w3.org/2000/svg">
  <sodipodi:namedview
     id="namedview1"
     pagecolor="#ffffff"
     bordercolor="#666666"
     borderopacity="1.0"
     inkscape:showpageshadow="2"
     inkscape:pageopacity="0.0"
     inkscape:pagecheckerboard="0"
     inkscape:deskcolor="#d1d1d1"
     inkscape:document-units="mm"
     inkscape:zoom="4.9372832"
     inkscape:cx="71.59808"
     inkscape:cy="54.179594"
     inkscape:window-width="1440"
     inkscape:window-height="804"
     inkscape:window-x="0"
     inkscape:window-y="25"
     inkscape:window-maximized="0"
     inkscape:current-layer="layer1"
     showgrid="false">
    <inkscape:grid
       id="grid1"
       units="mm"
       originx="0"
       originy="0"
       spacingx="0.26458333"
       spacingy="0.26458333"
       empcolor="#0099e5"
       empopacity="0.30196078"
       color="#0099e5"
       opacity="0.14901961"
       empspacing="5"
       enabled="true"
       visible="false" />
  </sodipodi:namedview>
  <defs
     id="defs1">
    <linearGradient
       id="linearGradient5"
       inkscape:collect="always">
      <stop
         style="stop-color:#3bff00;stop-opacity:1;"
         offset="0"
         id="stop4" />
      <stop
         style="stop-color:#faff00;stop-opacity:1;"
         offset="1"
         id="stop5" />
    </linearGradient>
    <linearGradient
       id="linearGradient2"
       inkscape:collect="always">
      <stop
         style="stop-color:#ff00ff;stop-opacity:1;"
         offset="0"
         id="stop2" />
      <stop
         style="stop-color:#faff00;stop-opacity:1;"
         offset="1"
         id="stop3" />
    </linearGradient>
    <linearGradient
       inkscape:collect="always"
       xlink:href="#linearGradient2"
       id="linearGradient3"
       x1="13.229166"
       y1="13.229166"
       x2="13.229166"
       y2="2.6458333"
       gradientUnits="userSpaceOnUse"
       gradientTransform="matrix(1.0833334,0,0,0.81041664,-1.1027116,2.6182726)" />
    <linearGradient
       inkscape:collect="always"
       xlink:href="#linearGradient5"
       id="linearGradient4"
       gradientUnits="userSpaceOnUse"
       x1="13.229166"
       y1="13.229166"
       x2="13.229166"
       y2="2.6458333"
       gradientTransform="matrix(1.0833334,0,0,0.40625002,-17.638888,13.587176)" />
    <linearGradient
       inkscape:collect="always"
       xlink:href="#linearGradient5"
       id="linearGradient6"
       gradientUnits="userSpaceOnUse"
       gradientTransform="matrix(1.0833334,0,0,0.40625002,-17.638888,-12.870597)"
       x1="13.229166"
       y1="13.229166"
       x2="13.229166"
       y2="2.6458333" />
    <linearGradient
       inkscape:collect="always"
       xlink:href="#linearGradient2"
       id="linearGradient3-4"
       x1="13.229166"
       y1="13.229166"
       x2="13.229166"
       y2="2.6458333"
       gradientUnits="userSpaceOnUse"
       gradientTransform="matrix(1.0833334,0,0,0.81152394,-17.528365,-12.609916)" />
    <linearGradient
       inkscape:collect="always"
       xlink:href="#linearGradient5"
       id="linearGradient11"
       gradientUnits="userSpaceOnUse"
       gradientTransform="matrix(1.0833334,0,0,0.54166677,-26.237848,3.1967666)"
       x1="13.229166"
       y1="13.229166"
       x2="13.229166"
       y2="2.6458333" />
    <linearGradient
       inkscape:collect="always"
       xlink:href="#linearGradient2"
       id="linearGradient3-3"
       x1="13.229166"
       y1="13.229166"
       x2="13.229166"
       y2="2.6458333"
       gradientUnits="userSpaceOnUse"
       gradientTransform="matrix(0.22998024,0,0,1.0833334,15.346484,-14.331599)" />
    <linearGradient
       inkscape:collect="always"
       xlink:href="#linearGradient5"
       id="linearGradient7"
       gradientUnits="userSpaceOnUse"
       gradientTransform="matrix(0.22998003,0,0,0.80643058,-21.431375,9.3315941)"
       x1="13.229166"
       y1="13.229166"
       x2="13.229166"
       y2="2.6458333" />
    <clipPath
       clipPathUnits="userSpaceOnUse"
       id="clipPath7">
      <g
         id="g9"
         transform="matrix(1.0833334,0,0,1.0833334,-1.1027116,-0.99218858)">
        <path
           id="path7"
           style="fill:#0000ff;stroke-width:1.25;stroke-linecap:round"
           d="M 3.96875,2.7414347 A 1.2273152,1.2273152 0 0 0 2.7414347,3.96875 1.2273152,1.2273152 0 0 0 3.6447388,5.1526571 V 6.7535929 A 1.2273152,1.2273152 0 0 0 2.7414347,7.9375 1.2273152,1.2273152 0 0 0 3.6447388,9.1214071 V 10.722343 A 1.2273152,1.2273152 0 0 0 2.7414347,11.90625 1.2273152,1.2273152 0 0 0 3.96875,13.133565 1.2273152,1.2273152 0 0 0 5.1526571,12.230261 H 8.1002808 A 1.2273152,1.2273152 0 0 0 9.2604167,13.057084 1.2273152,1.2273152 0 0 0 10.487732,11.829769 1.2273152,1.2273152 0 0 0 9.2604167,10.602454 1.2273152,1.2273152 0 0 0 8.0584229,11.582239 H 5.1526571 A 1.2273152,1.2273152 0 0 0 4.2927612,10.722343 V 9.1214071 A 1.2273152,1.2273152 0 0 0 5.1960653,7.9375 1.2273152,1.2273152 0 0 0 4.2927612,6.7535929 V 5.1526571 A 1.2273152,1.2273152 0 0 0 5.1960653,3.96875 1.2273152,1.2273152 0 0 0 3.96875,2.7414347 Z" />
        <path
           id="path8"
           style="fill:#0000ff;stroke-width:1.25;stroke-linecap:round"
           d="M 9.2604167,2.7414347 A 1.2273152,1.2273152 0 0 0 8.0331014,3.96875 1.2273152,1.2273152 0 0 0 9.2604167,5.1960653 1.2273152,1.2273152 0 0 0 10.444324,4.2927612 h 1.600936 a 1.2273152,1.2273152 0 0 0 0.858862,0.8593791 V 11.90625 h 0.650606 V 5.1521403 A 1.2273152,1.2273152 0 0 0 14.413074,4.2927612 H 16.01401 A 1.2273152,1.2273152 0 0 0 17.197917,5.1960653 1.2273152,1.2273152 0 0 0 18.425232,3.96875 1.2273152,1.2273152 0 0 0 17.197917,2.7414347 1.2273152,1.2273152 0 0 0 16.01401,3.6447388 H 14.413074 A 1.2273152,1.2273152 0 0 0 13.229167,2.7414347 1.2273152,1.2273152 0 0 0 12.04526,3.6447388 H 10.444324 A 1.2273152,1.2273152 0 0 0 9.2604167,2.7414347 Z" />
        <circle
           style="fill:#0000ff;stroke-width:1.25;stroke-linecap:round"
           id="circle8"
           cx="13.229166"
           cy="7.9375"
           r="1.2273152" />
        <circle
           style="fill:#0000ff;stroke-width:1.25;stroke-linecap:round"
           id="circle9"
           cx="13.229166"
           cy="11.90625"
           r="1.2273152" />
      </g>
    </clipPath>
    <clipPath
       clipPathUnits="userSpaceOnUse"
       id="clipPath9">
      <g
         id="g11"
         transform="matrix(1.0833334,0,0,1.0833334,-1.1027116,-0.99218858)">
        <path
           id="path9"
           style="fill:#0000ff;stroke-width:1.25;stroke-linecap:round"
           d="M 3.96875,2.7414347 A 1.2273152,1.2273152 0 0 0 2.7414347,3.96875 1.2273152,1.2273152 0 0 0 3.6447388,5.1526571 V 6.7535929 A 1.2273152,1.2273152 0 0 0 2.7414347,7.9375 1.2273152,1.2273152 0 0 0 3.6447388,9.1214071 V 10.722343 A 1.2273152,1.2273152 0 0 0 2.7414347,11.90625 1.2273152,1.2273152 0 0 0 3.96875,13.133565 1.2273152,1.2273152 0 0 0 5.1526571,12.230261 H 8.1002808 A 1.2273152,1.2273152 0 0 0 9.2604167,13.057084 1.2273152,1.2273152 0 0 0 10.487732,11.829769 1.2273152,1.2273152 0 0 0 9.2604167,10.602454 1.2273152,1.2273152 0 0 0 8.0584229,11.582239 H 5.1526571 A 1.2273152,1.2273152 0 0 0 4.2927612,10.722343 V 9.1214071 A 1.2273152,1.2273152 0 0 0 5.1960653,7.9375 1.2273152,1.2273152 0 0 0 4.2927612,6.7535929 V 5.1526571 A 1.2273152,1.2273152 0 0 0 5.1960653,3.96875 1.2273152,1.2273152 0 0 0 3.96875,2.7414347 Z" />
        <path
           id="path10"
           style="fill:#0000ff;stroke-width:1.25;stroke-linecap:round"
           d="M 9.2604167,2.7414347 A 1.2273152,1.2273152 0 0 0 8.0331014,3.96875 1.2273152,1.2273152 0 0 0 9.2604167,5.1960653 1.2273152,1.2273152 0 0 0 10.444324,4.2927612 h 1.600936 a 1.2273152,1.2273152 0 0 0 0.858862,0.8593791 V 11.90625 h 0.650606 V 5.1521403 A 1.2273152,1.2273152 0 0 0 14.413074,4.2927612 H 16.01401 A 1.2273152,1.2273152 0 0 0 17.197917,5.1960653 1.2273152,1.2273152 0 0 0 18.425232,3.96875 1.2273152,1.2273152 0 0 0 17.197917,2.7414347 1.2273152,1.2273152 0 0 0 16.01401,3.6447388 H 14.413074 A 1.2273152,1.2273152 0 0 0 13.229167,2.7414347 1.2273152,1.2273152 0 0 0 12.04526,3.6447388 H 10.444324 A 1.2273152,1.2273152 0 0 0 9.2604167,2.7414347 Z" />
        <circle
           style="fill:#0000ff;stroke-width:1.25;stroke-linecap:round"
           id="circle10"
           cx="13.229166"
           cy="7.9375"
           r="1.2273152" />
        <circle
           style="fill:#0000ff;stroke-width:1.25;stroke-linecap:round"
           id="circle11"
           cx="13.229166"
           cy="11.90625"
           r="1.2273152" />
      </g>
    </clipPath>
    <clipPath
       clipPathUnits="userSpaceOnUse"
       id="clipPath11">
      <g
         id="g15"
         transform="matrix(-1.0833334,0,0,-1.0833334,1.1027116,0.99218858)">
        <path
           id="path13"
           style="fill:#0000ff;stroke-width:1.25;stroke-linecap:round"
           d="M 3.96875,2.7414347 A 1.2273152,1.2273152 0 0 0 2.7414347,3.96875 1.2273152,1.2273152 0 0 0 3.6447388,5.1526571 V 6.7535929 A 1.2273152,1.2273152 0 0 0 2.7414347,7.9375 1.2273152,1.2273152 0 0 0 3.6447388,9.1214071 V 10.722343 A 1.2273152,1.2273152 0 0 0 2.7414347,11.90625 1.2273152,1.2273152 0 0 0 3.96875,13.133565 1.2273152,1.2273152 0 0 0 5.1526571,12.230261 H 8.1002808 A 1.2273152,1.2273152 0 0 0 9.2604167,13.057084 1.2273152,1.2273152 0 0 0 10.487732,11.829769 1.2273152,1.2273152 0 0 0 9.2604167,10.602454 1.2273152,1.2273152 0 0 0 8.0584229,11.582239 H 5.1526571 A 1.2273152,1.2273152 0 0 0 4.2927612,10.722343 V 9.1214071 A 1.2273152,1.2273152 0 0 0 5.1960653,7.9375 1.2273152,1.2273152 0 0 0 4.2927612,6.7535929 V 5.1526571 A 1.2273152,1.2273152 0 0 0 5.1960653,3.96875 1.2273152,1.2273152 0 0 0 3.96875,2.7414347 Z" />
        <path
           id="path14"
           style="fill:#0000ff;stroke-width:1.25;stroke-linecap:round"
           d="M 9.2604167,2.7414347 A 1.2273152,1.2273152 0 0 0 8.0331014,3.96875 1.2273152,1.2273152 0 0 0 9.2604167,5.1960653 1.2273152,1.2273152 0 0 0 10.444324,4.2927612 h 1.600936 a 1.2273152,1.2273152 0 0 0 0.858862,0.8593791 V 11.90625 h 0.650606 V 5.1521403 A 1.2273152,1.2273152 0 0 0 14.413074,4.2927612 H 16.01401 A 1.2273152,1.2273152 0 0 0 17.197917,5.1960653 1.2273152,1.2273152 0 0 0 18.425232,3.96875 1.2273152,1.2273152 0 0 0 17.197917,2.7414347 1.2273152,1.2273152 0 0 0 16.01401,3.6447388 H 14.413074 A 1.2273152,1.2273152 0 0 0 13.229167,2.7414347 1.2273152,1.2273152 0 0 0 12.04526,3.6447388 H 10.444324 A 1.2273152,1.2273152 0 0 0 9.2604167,2.7414347 Z" />
        <circle
           style="fill:#0000ff;stroke-width:1.25;stroke-linecap:round"
           id="circle14"
           cx="13.229166"
           cy="7.9375"
           r="1.2273152" />
        <circle
           style="fill:#0000ff;stroke-width:1.25;stroke-linecap:round"
           id="circle15"
           cx="13.229166"
           cy="11.90625"
           r="1.2273152" />
      </g>
    </clipPath>
    <clipPath
       clipPathUnits="userSpaceOnUse"
       id="clipPath15">
      <g
         id="g17"
         transform="matrix(0,-1.0833334,-1.0833334,0,0.99218858,1.1027116)">
        <path
           id="path15"
           style="fill:#0000ff;stroke-width:1.25;stroke-linecap:round"
           d="M 3.96875,2.7414347 A 1.2273152,1.2273152 0 0 0 2.7414347,3.96875 1.2273152,1.2273152 0 0 0 3.6447388,5.1526571 V 6.7535929 A 1.2273152,1.2273152 0 0 0 2.7414347,7.9375 1.2273152,1.2273152 0 0 0 3.6447388,9.1214071 V 10.722343 A 1.2273152,1.2273152 0 0 0 2.7414347,11.90625 1.2273152,1.2273152 0 0 0 3.96875,13.133565 1.2273152,1.2273152 0 0 0 5.1526571,12.230261 H 8.1002808 A 1.2273152,1.2273152 0 0 0 9.2604167,13.057084 1.2273152,1.2273152 0 0 0 10.487732,11.829769 1.2273152,1.2273152 0 0 0 9.2604167,10.602454 1.2273152,1.2273152 0 0 0 8.0584229,11.582239 H 5.1526571 A 1.2273152,1.2273152 0 0 0 4.2927612,10.722343 V 9.1214071 A 1.2273152,1.2273152 0 0 0 5.1960653,7.9375 1.2273152,1.2273152 0 0 0 4.2927612,6.7535929 V 5.1526571 A 1.2273152,1.2273152 0 0 0 5.1960653,3.96875 1.2273152,1.2273152 0 0 0 3.96875,2.7414347 Z" />
        <path
           id="path16"
           style="fill:#0000ff;stroke-width:1.25;stroke-linecap:round"
           d="M 9.2604167,2.7414347 A 1.2273152,1.2273152 0 0 0 8.0331014,3.96875 1.2273152,1.2273152 0 0 0 9.2604167,5.1960653 1.2273152,1.2273152 0 0 0 10.444324,4.2927612 h 1.600936 a 1.2273152,1.2273152 0 0 0 0.858862,0.8593791 V 11.90625 h 0.650606 V 5.1521403 A 1.2273152,1.2273152 0 0 0 14.413074,4.2927612 H 16.01401 A 1.2273152,1.2273152 0 0 0 17.197917,5.1960653 1.2273152,1.2273152 0 0 0 18.425232,3.96875 1.2273152,1.2273152 0 0 0 17.197917,2.7414347 1.2273152,1.2273152 0 0 0 16.01401,3.6447388 H 14.413074 A 1.2273152,1.2273152 0 0 0 13.229167,2.7414347 1.2273152,1.2273152 0 0 0 12.04526,3.6447388 H 10.444324 A 1.2273152,1.2273152 0 0 0 9.2604167,2.7414347 Z" />
        <circle
           style="fill:#0000ff;stroke-width:1.25;stroke-linecap:round"
           id="circle16"
           cx="13.229166"
           cy="7.9375"
           r="1.2273152" />
        <circle
           style="fill:#0000ff;stroke-width:1.25;stroke-linecap:round"
           id="circle17"
           cx="13.229166"
           cy="11.90625"
           r="1.2273152" />
      </g>
    </clipPath>
    <clipPath
       clipPathUnits="userSpaceOnUse"
       id="clipPath17">
      <g
         id="g19"
         transform="matrix(0,1.0833334,-1.0833334,0,0.99218858,-1.1027116)">
        <path
           id="path17"
           style="fill:#0000ff;stroke-width:1.25;stroke-linecap:round"
           d="M 3.96875,2.7414347 A 1.2273152,1.2273152 0 0 0 2.7414347,3.96875 1.2273152,1.2273152 0 0 0 3.6447388,5.1526571 V 6.7535929 A 1.2273152,1.2273152 0 0 0 2.7414347,7.9375 1.2273152,1.2273152 0 0 0 3.6447388,9.1214071 V 10.722343 A 1.2273152,1.2273152 0 0 0 2.7414347,11.90625 1.2273152,1.2273152 0 0 0 3.96875,13.133565 1.2273152,1.2273152 0 0 0 5.1526571,12.230261 H 8.1002808 A 1.2273152,1.2273152 0 0 0 9.2604167,13.057084 1.2273152,1.2273152 0 0 0 10.487732,11.829769 1.2273152,1.2273152 0 0 0 9.2604167,10.602454 1.2273152,1.2273152 0 0 0 8.0584229,11.582239 H 5.1526571 A 1.2273152,1.2273152 0 0 0 4.2927612,10.722343 V 9.1214071 A 1.2273152,1.2273152 0 0 0 5.1960653,7.9375 1.2273152,1.2273152 0 0 0 4.2927612,6.7535929 V 5.1526571 A 1.2273152,1.2273152 0 0 0 5.1960653,3.96875 1.2273152,1.2273152 0 0 0 3.96875,2.7414347 Z" />
        <path
           id="path18"
           style="fill:#0000ff;stroke-width:1.25;stroke-linecap:round"
           d="M 9.2604167,2.7414347 A 1.2273152,1.2273152 0 0 0 8.0331014,3.96875 1.2273152,1.2273152 0 0 0 9.2604167,5.1960653 1.2273152,1.2273152 0 0 0 10.444324,4.2927612 h 1.600936 a 1.2273152,1.2273152 0 0 0 0.858862,0.8593791 V 11.90625 h 0.650606 V 5.1521403 A 1.2273152,1.2273152 0 0 0 14.413074,4.2927612 H 16.01401 A 1.2273152,1.2273152 0 0 0 17.197917,5.1960653 1.2273152,1.2273152 0 0 0 18.425232,3.96875 1.2273152,1.2273152 0 0 0 17.197917,2.7414347 1.2273152,1.2273152 0 0 0 16.01401,3.6447388 H 14.413074 A 1.2273152,1.2273152 0 0 0 13.229167,2.7414347 1.2273152,1.2273152 0 0 0 12.04526,3.6447388 H 10.444324 A 1.2273152,1.2273152 0 0 0 9.2604167,2.7414347 Z" />
        <circle
           style="fill:#0000ff;stroke-width:1.25;stroke-linecap:round"
           id="circle18"
           cx="13.229166"
           cy="7.9375"
           r="1.2273152" />
        <circle
           style="fill:#0000ff;stroke-width:1.25;stroke-linecap:round"
           id="circle19"
           cx="13.229166"
           cy="11.90625"
           r="1.2273152" />
      </g>
    </clipPath>
    <clipPath
       clipPathUnits="userSpaceOnUse"
       id="clipPath19">
      <g
         id="g21"
         transform="matrix(0,1.0833334,-1.0833334,0,0.99218858,-1.1027116)">
        <path
           id="path19"
           style="fill:#0000ff;stroke-width:1.25;stroke-linecap:round"
           d="M 3.96875,2.7414347 A 1.2273152,1.2273152 0 0 0 2.7414347,3.96875 1.2273152,1.2273152 0 0 0 3.6447388,5.1526571 V 6.7535929 A 1.2273152,1.2273152 0 0 0 2.7414347,7.9375 1.2273152,1.2273152 0 0 0 3.6447388,9.1214071 V 10.722343 A 1.2273152,1.2273152 0 0 0 2.7414347,11.90625 1.2273152,1.2273152 0 0 0 3.96875,13.133565 1.2273152,1.2273152 0 0 0 5.1526571,12.230261 H 8.1002808 A 1.2273152,1.2273152 0 0 0 9.2604167,13.057084 1.2273152,1.2273152 0 0 0 10.487732,11.829769 1.2273152,1.2273152 0 0 0 9.2604167,10.602454 1.2273152,1.2273152 0 0 0 8.0584229,11.582239 H 5.1526571 A 1.2273152,1.2273152 0 0 0 4.2927612,10.722343 V 9.1214071 A 1.2273152,1.2273152 0 0 0 5.1960653,7.9375 1.2273152,1.2273152 0 0 0 4.2927612,6.7535929 V 5.1526571 A 1.2273152,1.2273152 0 0 0 5.1960653,3.96875 1.2273152,1.2273152 0 0 0 3.96875,2.7414347 Z" />
        <path
           id="path20"
           style="fill:#0000ff;stroke-width:1.25;stroke-linecap:round"
           d="M 9.2604167,2.7414347 A 1.2273152,1.2273152 0 0 0 8.0331014,3.96875 1.2273152,1.2273152 0 0 0 9.2604167,5.1960653 1.2273152,1.2273152 0 0 0 10.444324,4.2927612 h 1.600936 a 1.2273152,1.2273152 0 0 0 0.858862,0.8593791 V 11.90625 h 0.650606 V 5.1521403 A 1.2273152,1.2273152 0 0 0 14.413074,4.2927612 H 16.01401 A 1.2273152,1.2273152 0 0 0 17.197917,5.1960653 1.2273152,1.2273152 0 0 0 18.425232,3.96875 1.2273152,1.2273152 0 0 0 17.197917,2.7414347 1.2273152,1.2273152 0 0 0 16.01401,3.6447388 H 14.413074 A 1.2273152,1.2273152 0 0 0 13.229167,2.7414347 1.2273152,1.2273152 0 0 0 12.04526,3.6447388 H 10.444324 A 1.2273152,1.2273152 0 0 0 9.2604167,2.7414347 Z" />
        <circle
           style="fill:#0000ff;stroke-width:1.25;stroke-linecap:round"
           id="circle20"
           cx="13.229166"
           cy="7.9375"
           r="1.2273152" />
        <circle
           style="fill:#0000ff;stroke-width:1.25;stroke-linecap:round"
           id="circle21"
           cx="13.229166"
           cy="11.90625"
           r="1.2273152" />
      </g>
    </clipPath>
    <clipPath
       clipPathUnits="userSpaceOnUse"
       id="clipPath21">
      <g
         id="g23"
         transform="matrix(1.0833334,0,0,1.0833334,-1.1027116,-0.99218858)">
        <path
           id="path21"
           style="fill:#0000ff;stroke-width:1.25;stroke-linecap:round"
           d="M 3.96875,2.7414347 A 1.2273152,1.2273152 0 0 0 2.7414347,3.96875 1.2273152,1.2273152 0 0 0 3.6447388,5.1526571 V 6.7535929 A 1.2273152,1.2273152 0 0 0 2.7414347,7.9375 1.2273152,1.2273152 0 0 0 3.6447388,9.1214071 V 10.722343 A 1.2273152,1.2273152 0 0 0 2.7414347,11.90625 1.2273152,1.2273152 0 0 0 3.96875,13.133565 1.2273152,1.2273152 0 0 0 5.1526571,12.230261 H 8.1002808 A 1.2273152,1.2273152 0 0 0 9.2604167,13.057084 1.2273152,1.2273152 0 0 0 10.487732,11.829769 1.2273152,1.2273152 0 0 0 9.2604167,10.602454 1.2273152,1.2273152 0 0 0 8.0584229,11.582239 H 5.1526571 A 1.2273152,1.2273152 0 0 0 4.2927612,10.722343 V 9.1214071 A 1.2273152,1.2273152 0 0 0 5.1960653,7.9375 1.2273152,1.2273152 0 0 0 4.2927612,6.7535929 V 5.1526571 A 1.2273152,1.2273152 0 0 0 5.1960653,3.96875 1.2273152,1.2273152 0 0 0 3.96875,2.7414347 Z" />
        <path
           id="path22"
           style="fill:#0000ff;stroke-width:1.25;stroke-linecap:round"
           d="M 9.2604167,2.7414347 A 1.2273152,1.2273152 0 0 0 8.0331014,3.96875 1.2273152,1.2273152 0 0 0 9.2604167,5.1960653 1.2273152,1.2273152 0 0 0 10.444324,4.2927612 h 1.600936 a 1.2273152,1.2273152 0 0 0 0.858862,0.8593791 V 11.90625 h 0.650606 V 5.1521403 A 1.2273152,1.2273152 0 0 0 14.413074,4.2927612 H 16.01401 A 1.2273152,1.2273152 0 0 0 17.197917,5.1960653 1.2273152,1.2273152 0 0 0 18.425232,3.96875 1.2273152,1.2273152 0 0 0 17.197917,2.7414347 1.2273152,1.2273152 0 0 0 16.01401,3.6447388 H 14.413074 A 1.2273152,1.2273152 0 0 0 13.229167,2.7414347 1.2273152,1.2273152 0 0 0 12.04526,3.6447388 H 10.444324 A 1.2273152,1.2273152 0 0 0 9.2604167,2.7414347 Z" />
        <circle
           style="fill:#0000ff;stroke-width:1.25;stroke-linecap:round"
           id="circle22"
           cx="13.229166"
           cy="7.9375"
           r="1.2273152" />
        <circle
           style="fill:#0000ff;stroke-width:1.25;stroke-linecap:round"
           id="circle23"
           cx="13.229166"
           cy="11.90625"
           r="1.2273152" />
      </g>
    </clipPath>
  </defs>
  <g
     inkscape:label="Layer 1"
     inkscape:groupmode="layer"
     id="layer1">
    <g
       id="g24"
       transform="translate(-0.24718667,6.5024)">
      <rect
         style="fill:url(#linearGradient3-3);stroke-width:0.248549;stroke-linecap:round;stroke-dasharray:none"
         id="rect2-3"
         width="0.60848916"
         height="11.465278"
         x="18.084686"
         y="-11.465277"
         transform="rotate(90)" />
      <rect
         style="fill:url(#linearGradient7);stroke-width:0.214445;stroke-linecap:round;stroke-dasharray:none"
         id="rect2-2-8"
         width="0.60848856"
         height="8.5347233"
         x="-18.693174"
         y="11.465277"
         transform="rotate(-90)" />
    </g>
    <g
       id="g25">
      <rect
         style="fill:url(#linearGradient3);stroke-width:0.466574;stroke-linecap:round;stroke-dasharray:none"
         id="rect2"
         width="2.8663185"
         height="8.5769091"
         x="11.795727"
         y="4.7624998"
         clip-path="url(#clipPath21)" />
      <rect
         style="fill:url(#linearGradient4);stroke-width:0.330342;stroke-linecap:round;stroke-dasharray:none"
         id="rect2-2"
         width="2.8663185"
         height="4.299479"
         x="-4.7404499"
         y="14.662046"
         transform="rotate(-90)"
         clip-path="url(#clipPath19)" />
      <rect
         style="fill:url(#linearGradient11);stroke-width:0.381446;stroke-linecap:round;stroke-dasharray:none"
         id="rect2-2-5"
         width="2.8663185"
         height="5.7326398"
         x="-13.339409"
         y="4.6299276"
         transform="rotate(-90)"
         clip-path="url(#clipPath17)" />
      <rect
         style="fill:url(#linearGradient6);stroke-width:0.330342;stroke-linecap:round;stroke-dasharray:none"
         id="rect2-2-4"
         width="2.8663185"
         height="4.299479"
         x="-4.7404494"
         y="-11.795727"
         transform="matrix(0,-1,-1,0,0,0)"
         clip-path="url(#clipPath15)" />
      <rect
         style="fill:url(#linearGradient3-4);stroke-width:0.466893;stroke-linecap:round;stroke-dasharray:none"
         id="rect2-5"
         width="2.8663185"
         height="8.5886278"
         x="-4.6299272"
         y="-10.462759"
         transform="scale(-1)"
         clip-path="url(#clipPath11)" />
      <rect
         style="fill:#faff00;fill-opacity:1;stroke:none;stroke-width:0.660387;stroke-linecap:round;stroke-opacity:1"
         id="rect7"
         width="2.8668792"
         height="2.8883688"
         x="11.795727"
         y="1.874131"
         clip-path="url(#clipPath9)" />
      <rect
         style="fill:#faff00;fill-opacity:1;stroke:none;stroke-width:0.728637;stroke-linecap:round;stroke-opacity:1"
         id="rect7-0"
         width="3.175"
         height="3.1749983"
         x="1.4549271"
         y="10.462759"
         clip-path="url(#clipPath7)" />
    </g>
    <g
       id="g12"
       transform="translate(0.19999207)">
      <path
         style="font-weight:600;font-size:4.58611px;line-height:1.25;font-family:Poppins;-inkscape-font-specification:'Poppins Semi-Bold';text-align:center;letter-spacing:-0.264583px;text-anchor:middle;fill:#4d4d4d;stroke-width:0.264583"
         d="m 17.113539,18.084712 h 0.642055 V 17.00239 l 0.862189,1.082322 h 0.834672 l -1.128183,-1.265766 1.119011,-1.274939 h -0.834672 l -0.853017,1.077736 v -1.930752 h -0.642055 z"
         id="path11" />
      <path
         style="font-weight:600;font-size:4.58611px;line-height:1.25;font-family:Poppins;-inkscape-font-specification:'Poppins Semi-Bold';text-align:center;letter-spacing:-0.264583px;text-anchor:middle;fill:#4d4d4d;stroke-width:0.264583"
         d="m 14.452187,16.81436 c 0,0.797983 0.522817,1.311627 1.256594,1.311627 0.632883,0 1.059392,-0.357716 1.196975,-0.898877 h -0.692503 c -0.07796,0.229305 -0.243064,0.348544 -0.509058,0.348544 -0.357717,0 -0.596194,-0.265994 -0.596194,-0.761294 0,-0.4953 0.238477,-0.765881 0.596194,-0.765881 0.265994,0 0.435681,0.137584 0.509058,0.353131 h 0.692503 c -0.137583,-0.568678 -0.564092,-0.898878 -1.196975,-0.898878 -0.733777,0 -1.256594,0.513645 -1.256594,1.311628 z"
         id="path6" />
      <path
         style="font-weight:600;font-size:4.58611px;line-height:1.25;font-family:Poppins;-inkscape-font-specification:'Poppins Semi-Bold';text-align:center;letter-spacing:-0.264583px;text-anchor:middle;fill:#4d4d4d;stroke-width:0.264583"
         d="m 11.60739,16.80516 c 0,0.793397 0.513644,1.320799 1.1557,1.320799 0.403577,0 0.692502,-0.192616 0.843844,-0.41275 v 0.371475 h 0.646641 v -2.540703 h -0.646641 v 0.362303 c -0.151342,-0.210961 -0.431094,-0.403578 -0.839258,-0.403578 -0.646642,0 -1.160286,0.509059 -1.160286,1.302456 z m 1.999544,0.0092 c 0,0.481541 -0.321028,0.747536 -0.674158,0.747536 -0.343959,0 -0.669572,-0.275167 -0.669572,-0.756708 0,-0.481542 0.325613,-0.738364 0.669572,-0.738364 0.35313,0 0.674158,0.265994 0.674158,0.747536 z"
         id="path5" />
      <path
         style="font-weight:600;font-size:4.58611px;line-height:1.25;font-family:Poppins;-inkscape-font-specification:'Poppins Semi-Bold';text-align:center;letter-spacing:-0.264583px;text-anchor:middle;fill:#4d4d4d;stroke-width:0.264583"
         d="m 10.826343,16.81892 c 0,-0.490714 0.229305,-0.637469 0.609952,-0.637469 h 0.169686 v -0.674159 c -0.35313,0 -0.619124,0.169686 -0.779638,0.431095 v -0.394406 h -0.642056 v 2.540705 h 0.642056 z"
         id="path4" />
      <path
         style="font-weight:600;font-size:4.58611px;line-height:1.25;font-family:Poppins;-inkscape-font-specification:'Poppins Semi-Bold';text-align:center;letter-spacing:-0.264583px;text-anchor:middle;fill:#4d4d4d;stroke-width:0.264583"
         d="m 7.633,15.401812 h 0.8530165 v 2.682874 H 9.1280719 V 15.401812 H 9.981089 V 14.883581 H 7.633 Z"
         id="path3" />
      <path
         style="font-weight:600;font-size:4.58611px;line-height:1.25;font-family:Poppins;-inkscape-font-specification:'Poppins Semi-Bold';text-align:center;letter-spacing:-0.264583px;text-anchor:middle;fill:#4d4d4d;stroke-width:0.264583"
         d="M 5.9003003,15.91087 V 15.543981 H 5.2582449 v 3.751438 h 0.6420554 v -1.573035 c 0.1559277,0.206375 0.4402666,0.403577 0.8392581,0.403577 0.6512277,0 1.1602859,-0.527402 1.1602859,-1.320799 0,-0.793397 -0.5090582,-1.302456 -1.1602859,-1.302456 -0.3944054,0 -0.6879165,0.192617 -0.8392581,0.408164 z m 1.3437302,0.894292 c 0,0.481541 -0.3256138,0.756708 -0.6741581,0.756708 -0.3439583,0 -0.6695721,-0.265995 -0.6695721,-0.747536 0,-0.481542 0.3256138,-0.747536 0.6695721,-0.747536 0.3485443,0 0.6741581,0.256822 0.6741581,0.738364 z"
         id="path2" />
      <path
         style="font-weight:600;font-size:4.58611px;line-height:1.25;font-family:Poppins;-inkscape-font-specification:'Poppins Semi-Bold';text-align:center;letter-spacing:-0.264583px;text-anchor:middle;fill:#4d4d4d;stroke-width:0.264583"
         d="m 2.2483479,16.805162 c 0,0.793397 0.5136443,1.320799 1.1556997,1.320799 0.4035777,0 0.6925027,-0.192616 0.8438443,-0.41275 v 0.371475 H 4.8945334 V 15.543981 H 4.2478919 v 0.362303 C 4.0965503,15.695323 3.8167975,15.502706 3.4086337,15.502706 c -0.6466415,0 -1.1602858,0.509059 -1.1602858,1.302456 z m 1.999544,0.0092 c 0,0.481541 -0.3210277,0.747536 -0.6741582,0.747536 -0.3439583,0 -0.6695721,-0.275167 -0.6695721,-0.756708 0,-0.481542 0.3256138,-0.738364 0.6695721,-0.738364 0.3531305,0 0.6741582,0.265994 0.6741582,0.747536 z"
         id="path1" />
      <path
         style="font-weight:600;font-size:4.58611px;line-height:1.25;font-family:Poppins;-inkscape-font-specification:'Poppins Semi-Bold';text-align:center;letter-spacing:-0.264583px;text-anchor:middle;fill:#4d4d4d;stroke-width:0.264583"
         d="m 0.57300793,14.883581 v 3.201105 H 2.2698687 V 17.575628 H 1.2150633 v -2.692047 z"
         id="text1" />
    </g>
  </g>
</svg>
